# Blender 4.2.3 LTS
# www.blender.org
mtllib 0_2.mtl
o 0
v -0.043092 0.304928 -0.043092
v -0.031311 0.325078 -0.060724
v -0.027174 0.348847 -0.081522
v -0.027174 0.504127 -0.081522
v -0.031311 0.504127 -0.060724
v -0.043092 0.504127 -0.043092
v -0.060724 0.504127 -0.031311
v -0.081522 0.504127 -0.027174
v -0.081522 0.348847 -0.027174
v -0.060724 0.325078 -0.031311
v -0.217391 0.504127 -0.027174
v -0.027174 0.504127 -0.217391
v 0.027174 0.504127 -0.217391
v 0.027174 0.504127 -0.081522
v 0.031311 0.504127 -0.060724
v 0.043092 0.504127 -0.043092
v 0.060724 0.504127 -0.031311
v 0.081522 0.504127 -0.027174
v 0.217391 0.504127 -0.027174
v 0.217391 0.504127 0.027174
v 0.081522 0.504127 0.027174
v 0.060724 0.504127 0.031311
v 0.043092 0.504127 0.043092
v 0.031311 0.504127 0.060724
v 0.027174 0.504127 0.081522
v 0.027174 0.504127 0.217391
v -0.027174 0.504127 0.217391
v -0.027174 0.504127 0.081522
v -0.031311 0.504127 0.060724
v -0.043092 0.504127 0.043092
v -0.060724 0.504127 0.031311
v -0.081522 0.504127 0.027174
v -0.217391 0.504127 0.027174
v -0.353261 0.504127 -0.000000
v -0.347246 0.504127 0.064911
v -0.329406 0.504127 0.127613
v -0.300348 0.504127 0.185968
v -0.261063 0.504127 0.237990
v -0.212887 0.504127 0.281908
v -0.157462 0.504127 0.316226
v -0.096674 0.504127 0.339775
v -0.032595 0.504127 0.351754
v 0.032595 0.504127 0.351754
v 0.096674 0.504127 0.339775
v 0.157462 0.504127 0.316226
v 0.212887 0.504127 0.281908
v 0.261063 0.504127 0.237990
v 0.300348 0.504127 0.185968
v 0.329406 0.504127 0.127613
v 0.347246 0.504127 0.064911
v 0.353261 0.504127 -0.000000
v 0.347246 0.504127 -0.064912
v 0.329406 0.504127 -0.127613
v 0.300348 0.504127 -0.185968
v 0.261063 0.504127 -0.237990
v 0.212887 0.504127 -0.281908
v 0.157462 0.504127 -0.316226
v 0.096674 0.504127 -0.339775
v 0.032595 0.504127 -0.351754
v -0.032595 0.504127 -0.351754
v -0.096674 0.504127 -0.339775
v -0.157462 0.504127 -0.316226
v -0.212887 0.504127 -0.281908
v -0.261063 0.504127 -0.237990
v -0.300348 0.504127 -0.185968
v -0.329406 0.504127 -0.127613
v -0.347246 0.504127 -0.064912
v -0.043092 0.304928 0.043092
v -0.060724 0.325078 0.031311
v -0.081522 0.348847 0.027174
v -0.027174 0.348847 0.081522
v -0.031311 0.325078 0.060724
v 0.043092 0.304928 0.043092
v 0.031311 0.325078 0.060724
v 0.027174 0.348847 0.081522
v 0.081522 0.348847 0.027174
v 0.060724 0.325078 0.031311
v 0.043092 0.304928 -0.043092
v 0.060724 0.325078 -0.031311
v 0.081522 0.348847 -0.027174
v 0.027174 0.348847 -0.081522
v 0.031311 0.325078 -0.060724
v 0.027174 0.286736 -0.027174
v -0.027174 0.286736 -0.027174
v -0.027174 0.286736 0.027174
v 0.027174 0.286736 0.027174
v 0.000000 0.418638 -0.267772
v -0.055673 0.418638 -0.261920
v -0.108913 0.418638 -0.244622
v -0.157392 0.418638 -0.216632
v -0.198993 0.418638 -0.179174
v -0.231897 0.418638 -0.133886
v -0.254666 0.418638 -0.082746
v -0.266305 0.418638 -0.027990
v -0.266305 0.418638 0.027990
v -0.254666 0.418638 0.082746
v -0.231897 0.418638 0.133886
v -0.198993 0.418638 0.179174
v -0.157392 0.418638 0.216632
v -0.108913 0.418638 0.244622
v -0.055673 0.418638 0.261920
v 0.000000 0.418638 0.267772
v 0.055673 0.418638 0.261920
v 0.108913 0.418638 0.244622
v 0.157392 0.418638 0.216632
v 0.198993 0.418638 0.179174
v 0.231897 0.418638 0.133886
v 0.254666 0.418638 0.082746
v 0.266305 0.418638 0.027990
v 0.266305 0.418638 -0.027990
v 0.254666 0.418638 -0.082746
v 0.231897 0.418638 -0.133886
v 0.198993 0.418638 -0.179174
v 0.157392 0.418638 -0.216632
v 0.108913 0.418638 -0.244622
v 0.055673 0.418638 -0.261920
v 0.000000 -0.664351 -0.267772
v -0.055673 -0.664351 -0.261920
v -0.108913 -0.664351 -0.244622
v -0.157392 -0.664351 -0.216632
v -0.198993 -0.664351 -0.179174
v -0.231897 -0.664351 -0.133886
v -0.254666 -0.664351 -0.082746
v -0.266305 -0.664351 -0.027990
v -0.266305 -0.664351 0.027990
v -0.254666 -0.664351 0.082746
v -0.231897 -0.664351 0.133886
v -0.198993 -0.664351 0.179174
v -0.157392 -0.664351 0.216632
v -0.108913 -0.664351 0.244622
v -0.055673 -0.664351 0.261920
v 0.000000 -0.664351 0.267772
v 0.055673 -0.664351 0.261920
v 0.108913 -0.664351 0.244622
v 0.157392 -0.664351 0.216632
v 0.198993 -0.664351 0.179174
v 0.231897 -0.664351 0.133886
v 0.254666 -0.664351 0.082746
v 0.266305 -0.664351 0.027990
v 0.266305 -0.664351 -0.027990
v 0.254666 -0.664351 -0.082746
v 0.231897 -0.664351 -0.133886
v 0.198993 -0.664351 -0.179174
v 0.157392 -0.664351 -0.216632
v 0.108913 -0.664351 -0.244622
v 0.055673 -0.664351 -0.261920
vn 0.5556 -0.0000 0.8315
vn 0.8315 -0.0000 0.5556
vn 0.9808 -0.0000 0.1951
vn 0.1951 -0.0000 0.9808
vn -0.0000 -0.0000 1.0000
vn -0.0000 1.0000 -0.0000
vn 0.8315 -0.0000 -0.5556
vn 0.5556 -0.0000 -0.8315
vn 0.1951 -0.0000 -0.9808
vn 0.9808 -0.0000 -0.1951
vn 1.0000 -0.0000 -0.0000
vn -0.5556 -0.0000 -0.8315
vn -0.8315 -0.0000 -0.5556
vn -0.9808 -0.0000 -0.1951
vn -0.1951 -0.0000 -0.9808
vn -0.0000 -0.0000 -1.0000
vn -0.8315 -0.0000 0.5556
vn -0.5556 -0.0000 0.8315
vn -0.1951 -0.0000 0.9808
vn -0.9808 -0.0000 0.1951
vn -0.0000 0.6585 0.7526
vn 0.7526 0.6585 -0.0000
vn -0.0000 0.6585 -0.7526
vn -1.0000 -0.0000 -0.0000
vn -0.7526 0.6585 -0.0000
vn -0.0733 -0.7130 -0.6973
vn -0.0000 -0.7008 -0.7134
vn 0.0733 -0.7130 -0.6973
vn 0.1310 -0.7011 -0.7009
vn 0.2169 -0.7121 -0.6677
vn 0.2572 -0.7022 -0.6639
vn 0.3519 -0.7104 -0.6095
vn 0.3739 -0.7039 -0.6039
vn 0.4727 -0.7077 -0.5250
vn 0.4770 -0.7062 -0.5232
vn 0.5660 -0.7050 -0.4274
vn -0.1310 -0.7011 -0.7009
vn -0.2169 -0.7121 -0.6677
vn -0.2572 -0.7022 -0.6639
vn -0.3519 -0.7104 -0.6095
vn -0.3739 -0.7039 -0.6039
vn -0.4727 -0.7077 -0.5250
vn -0.4770 -0.7062 -0.5232
vn -0.5660 -0.7050 -0.4274
vn -0.5704 -0.7092 -0.4144
vn -0.6367 -0.7029 -0.3170
vn -0.6421 -0.7114 -0.2859
vn -0.6854 -0.7016 -0.1950
vn -0.6862 -0.7127 -0.1459
vn -0.7102 -0.7009 -0.0658
vn -0.7011 -0.7131 -0.0000
vn -0.7102 -0.7009 0.0658
vn -0.6862 -0.7127 0.1459
vn -0.6854 -0.7016 0.1950
vn -0.6421 -0.7114 0.2859
vn -0.6367 -0.7029 0.3170
vn -0.5704 -0.7092 0.4144
vn -0.5660 -0.7050 0.4274
vn -0.4770 -0.7062 0.5232
vn -0.4727 -0.7077 0.5250
vn -0.3739 -0.7039 0.6039
vn -0.3519 -0.7104 0.6095
vn -0.2572 -0.7022 0.6639
vn -0.2169 -0.7121 0.6677
vn -0.1310 -0.7011 0.7009
vn -0.0733 -0.7130 0.6973
vn -0.0000 -0.7008 0.7134
vn 0.0733 -0.7130 0.6973
vn 0.1310 -0.7011 0.7009
vn 0.2169 -0.7121 0.6677
vn 0.2572 -0.7022 0.6639
vn 0.3519 -0.7104 0.6095
vn 0.3739 -0.7039 0.6039
vn 0.4727 -0.7077 0.5250
vn 0.4770 -0.7062 0.5232
vn 0.5660 -0.7050 0.4274
vn 0.5704 -0.7092 0.4144
vn 0.6367 -0.7029 0.3170
vn 0.6421 -0.7114 0.2859
vn 0.6854 -0.7016 0.1950
vn 0.6862 -0.7127 0.1459
vn 0.7102 -0.7009 0.0658
vn 0.7011 -0.7131 -0.0000
vn 0.7102 -0.7009 -0.0658
vn 0.6862 -0.7127 -0.1459
vn 0.6854 -0.7016 -0.1950
vn 0.6421 -0.7114 -0.2859
vn 0.6367 -0.7029 -0.3170
vn 0.5704 -0.7092 -0.4144
vn 0.1045 -0.0000 -0.9945
vn -0.1045 -0.0000 -0.9945
vn -0.3090 -0.0000 -0.9511
vn -0.5000 -0.0000 -0.8660
vn -0.6691 -0.0000 -0.7431
vn -0.8090 -0.0000 -0.5878
vn -0.9135 -0.0000 -0.4067
vn -0.9781 -0.0000 -0.2079
vn -0.9781 -0.0000 0.2079
vn -0.9135 -0.0000 0.4067
vn -0.8090 -0.0000 0.5878
vn -0.6691 -0.0000 0.7431
vn -0.5000 -0.0000 0.8660
vn -0.3090 -0.0000 0.9511
vn -0.1045 -0.0000 0.9945
vn 0.1045 -0.0000 0.9945
vn 0.3090 -0.0000 0.9511
vn 0.5000 -0.0000 0.8660
vn 0.6691 -0.0000 0.7431
vn 0.8090 -0.0000 0.5878
vn 0.9135 -0.0000 0.4067
vn 0.9781 -0.0000 0.2079
vn 0.9781 -0.0000 -0.2079
vn 0.9135 -0.0000 -0.4067
vn 0.8090 -0.0000 -0.5878
vn 0.6691 -0.0000 -0.7431
vn 0.5000 -0.0000 -0.8660
vn 0.3090 -0.0000 -0.9511
vn -0.0000 -1.0000 -0.0000
s 0
f 10//1 1//1 6//1
f 6//2 1//2 2//2
f 6//2 2//2 5//2
f 5//3 2//3 3//3
f 5//3 3//3 4//3
f 6//1 7//1 10//1
f 10//4 7//4 9//4
f 9//4 7//4 8//4
f 9//5 8//5 11//5
f 7//6 6//6 8//6
f 8//6 6//6 5//6
f 8//6 5//6 4//6
f 8//6 4//6 64//6
f 64//6 4//6 12//6
f 64//6 12//6 63//6
f 63//6 12//6 62//6
f 62//6 12//6 61//6
f 61//6 12//6 60//6
f 60//6 12//6 13//6
f 60//6 13//6 59//6
f 59//6 13//6 58//6
f 58//6 13//6 57//6
f 57//6 13//6 56//6
f 56//6 13//6 55//6
f 55//6 13//6 14//6
f 55//6 14//6 18//6
f 18//6 14//6 15//6
f 18//6 15//6 16//6
f 16//6 17//6 18//6
f 18//6 19//6 55//6
f 55//6 19//6 54//6
f 54//6 19//6 53//6
f 53//6 19//6 52//6
f 52//6 19//6 51//6
f 51//6 19//6 20//6
f 51//6 20//6 50//6
f 50//6 20//6 49//6
f 49//6 20//6 48//6
f 48//6 20//6 47//6
f 47//6 20//6 21//6
f 47//6 21//6 25//6
f 25//6 21//6 24//6
f 24//6 21//6 23//6
f 23//6 21//6 22//6
f 25//6 26//6 47//6
f 47//6 26//6 46//6
f 46//6 26//6 45//6
f 45//6 26//6 44//6
f 44//6 26//6 43//6
f 43//6 26//6 42//6
f 42//6 26//6 27//6
f 42//6 27//6 41//6
f 41//6 27//6 40//6
f 40//6 27//6 39//6
f 39//6 27//6 38//6
f 38//6 27//6 28//6
f 38//6 28//6 32//6
f 32//6 28//6 29//6
f 32//6 29//6 30//6
f 30//6 31//6 32//6
f 32//6 33//6 38//6
f 38//6 33//6 37//6
f 37//6 33//6 36//6
f 36//6 33//6 35//6
f 35//6 33//6 34//6
f 34//6 33//6 11//6
f 34//6 11//6 67//6
f 67//6 11//6 66//6
f 66//6 11//6 65//6
f 65//6 11//6 64//6
f 64//6 11//6 8//6
f 72//7 68//7 30//7
f 30//8 68//8 69//8
f 30//8 69//8 31//8
f 31//9 69//9 70//9
f 31//9 70//9 32//9
f 30//7 29//7 72//7
f 72//10 29//10 71//10
f 71//10 29//10 28//10
f 71//11 28//11 27//11
f 77//12 73//12 23//12
f 23//13 73//13 74//13
f 23//13 74//13 24//13
f 24//14 74//14 75//14
f 24//14 75//14 25//14
f 23//12 22//12 77//12
f 77//15 22//15 76//15
f 76//15 22//15 21//15
f 76//16 21//16 20//16
f 82//17 78//17 16//17
f 16//18 78//18 79//18
f 16//18 79//18 17//18
f 17//19 79//19 80//19
f 17//19 80//19 18//19
f 16//17 15//17 82//17
f 82//20 15//20 81//20
f 81//20 15//20 14//20
f 18//5 80//5 19//5
f 84//6 85//6 83//6
f 83//6 85//6 86//6
f 13//21 12//21 81//21
f 81//21 12//21 3//21
f 81//21 3//21 83//21
f 83//21 3//21 84//21
f 84//21 3//21 2//21
f 84//21 2//21 1//21
f 78//21 82//21 83//21
f 83//21 82//21 81//21
f 4//11 3//11 12//11
f 11//22 33//22 9//22
f 9//22 33//22 70//22
f 9//22 70//22 84//22
f 84//22 70//22 85//22
f 85//22 70//22 69//22
f 85//22 69//22 68//22
f 1//22 10//22 84//22
f 84//22 10//22 9//22
f 32//16 70//16 33//16
f 27//23 26//23 71//23
f 71//23 26//23 75//23
f 71//23 75//23 85//23
f 85//23 75//23 86//23
f 86//23 75//23 74//23
f 86//23 74//23 73//23
f 68//23 72//23 85//23
f 85//23 72//23 71//23
f 25//24 75//24 26//24
f 20//25 19//25 76//25
f 76//25 19//25 80//25
f 76//25 80//25 86//25
f 86//25 80//25 83//25
f 83//25 80//25 79//25
f 83//25 79//25 78//25
f 73//25 77//25 86//25
f 86//25 77//25 76//25
f 81//24 14//24 13//24
f 88//26 60//26 87//26
f 87//27 60//27 59//27
f 87//28 59//28 116//28
f 116//29 59//29 58//29
f 116//30 58//30 115//30
f 115//31 58//31 57//31
f 115//32 57//32 114//32
f 114//33 57//33 56//33
f 114//34 56//34 113//34
f 113//35 56//35 55//35
f 113//36 55//36 54//36
f 60//37 88//37 61//37
f 61//38 88//38 89//38
f 61//39 89//39 62//39
f 62//40 89//40 90//40
f 62//41 90//41 63//41
f 63//42 90//42 91//42
f 63//43 91//43 64//43
f 64//44 91//44 65//44
f 65//45 91//45 92//45
f 65//46 92//46 66//46
f 66//47 92//47 93//47
f 66//48 93//48 67//48
f 67//49 93//49 94//49
f 67//50 94//50 34//50
f 34//51 94//51 95//51
f 34//52 95//52 35//52
f 35//53 95//53 96//53
f 35//54 96//54 36//54
f 36//55 96//55 97//55
f 36//56 97//56 37//56
f 37//57 97//57 98//57
f 37//58 98//58 38//58
f 38//59 98//59 39//59
f 39//60 98//60 99//60
f 39//61 99//61 40//61
f 40//62 99//62 100//62
f 40//63 100//63 41//63
f 41//64 100//64 101//64
f 41//65 101//65 42//65
f 42//66 101//66 102//66
f 42//67 102//67 43//67
f 43//68 102//68 103//68
f 43//69 103//69 44//69
f 44//70 103//70 104//70
f 44//71 104//71 45//71
f 45//72 104//72 105//72
f 45//73 105//73 46//73
f 46//74 105//74 106//74
f 46//75 106//75 47//75
f 47//76 106//76 48//76
f 48//77 106//77 107//77
f 48//78 107//78 49//78
f 49//79 107//79 108//79
f 49//80 108//80 50//80
f 50//81 108//81 109//81
f 50//82 109//82 51//82
f 51//83 109//83 110//83
f 51//84 110//84 52//84
f 52//85 110//85 111//85
f 52//86 111//86 53//86
f 53//87 111//87 112//87
f 53//88 112//88 54//88
f 54//89 112//89 113//89
f 116//90 146//90 87//90
f 87//90 146//90 117//90
f 87//91 117//91 88//91
f 88//91 117//91 118//91
f 88//92 118//92 89//92
f 89//92 118//92 119//92
f 89//93 119//93 90//93
f 90//93 119//93 120//93
f 90//94 120//94 91//94
f 91//94 120//94 121//94
f 91//95 121//95 92//95
f 92//95 121//95 122//95
f 92//96 122//96 93//96
f 93//96 122//96 123//96
f 93//97 123//97 94//97
f 94//97 123//97 124//97
f 94//24 124//24 95//24
f 95//24 124//24 125//24
f 95//98 125//98 96//98
f 96//98 125//98 126//98
f 96//99 126//99 97//99
f 97//99 126//99 127//99
f 97//100 127//100 98//100
f 98//100 127//100 128//100
f 98//101 128//101 99//101
f 99//101 128//101 129//101
f 99//102 129//102 100//102
f 100//102 129//102 130//102
f 100//103 130//103 101//103
f 101//103 130//103 131//103
f 101//104 131//104 102//104
f 102//104 131//104 132//104
f 102//105 132//105 103//105
f 103//105 132//105 133//105
f 103//106 133//106 104//106
f 104//106 133//106 134//106
f 104//107 134//107 105//107
f 105//107 134//107 135//107
f 105//108 135//108 106//108
f 106//108 135//108 136//108
f 106//109 136//109 107//109
f 107//109 136//109 137//109
f 107//110 137//110 108//110
f 108//110 137//110 138//110
f 108//111 138//111 109//111
f 109//111 138//111 139//111
f 109//11 139//11 110//11
f 110//11 139//11 140//11
f 110//112 140//112 111//112
f 111//112 140//112 141//112
f 111//113 141//113 112//113
f 112//113 141//113 142//113
f 112//114 142//114 113//114
f 113//114 142//114 143//114
f 113//115 143//115 114//115
f 114//115 143//115 144//115
f 114//116 144//116 115//116
f 115//116 144//116 145//116
f 115//117 145//117 116//117
f 116//117 145//117 146//117
f 146//118 133//118 117//118
f 117//118 133//118 132//118
f 117//118 132//118 118//118
f 118//118 132//118 131//118
f 118//118 131//118 119//118
f 119//118 131//118 130//118
f 119//118 130//118 120//118
f 120//118 130//118 129//118
f 120//118 129//118 121//118
f 121//118 129//118 128//118
f 121//118 128//118 122//118
f 122//118 128//118 127//118
f 122//118 127//118 123//118
f 123//118 127//118 126//118
f 123//118 126//118 124//118
f 124//118 126//118 125//118
f 133//118 146//118 134//118
f 134//118 146//118 145//118
f 134//118 145//118 135//118
f 135//118 145//118 144//118
f 135//118 144//118 136//118
f 136//118 144//118 143//118
f 136//118 143//118 137//118
f 137//118 143//118 142//118
f 137//118 142//118 138//118
f 138//118 142//118 141//118
f 138//118 141//118 139//118
f 139//118 141//118 140//118
